<svg width="79" height="35" viewBox="0 0 79 35" fill="none" xmlns="http://www.w3.org/2000/svg">
<line x1="0.5" y1="2.18557e-08" x2="0.499998" y2="35" stroke="black"/>
<line x1="4.38696" y1="4.37114e-08" x2="4.38696" y2="35" stroke="black" stroke-width="2"/>
<line x1="7.27417" y1="2.18557e-08" x2="7.27417" y2="35" stroke="black"/>
<line x1="11.1611" y1="4.37114e-08" x2="11.1611" y2="35" stroke="black" stroke-width="2"/>
<line x1="14.0483" y1="2.18557e-08" x2="14.0483" y2="35" stroke="black"/>
<line x1="17.4355" y1="2.18557e-08" x2="17.4355" y2="35" stroke="black"/>
<line x1="21.3228" y1="4.37114e-08" x2="21.3228" y2="35" stroke="black" stroke-width="2"/>
<line x1="24.7097" y1="4.37114e-08" x2="24.7097" y2="35" stroke="black" stroke-width="2"/>
<line x1="27.5967" y1="2.18557e-08" x2="27.5967" y2="35" stroke="black"/>
<line x1="31.4839" y1="4.37114e-08" x2="31.4839" y2="35" stroke="black" stroke-width="2"/>
<line x1="34.3708" y1="2.18557e-08" x2="34.3708" y2="35" stroke="black"/>
<line x1="37.7581" y1="2.18557e-08" x2="37.7581" y2="35" stroke="black"/>
<line x1="41.145" y1="2.18557e-08" x2="41.145" y2="35" stroke="black"/>
<line x1="45.0325" y1="4.37114e-08" x2="45.0325" y2="35" stroke="black" stroke-width="2"/>
<line x1="47.9194" y1="2.18557e-08" x2="47.9194" y2="35" stroke="black"/>
<line x1="51.8066" y1="4.37114e-08" x2="51.8066" y2="35" stroke="black" stroke-width="2"/>
<line x1="54.6936" y1="2.18557e-08" x2="54.6936" y2="35" stroke="black"/>
<line x1="58.0806" y1="2.18557e-08" x2="58.0806" y2="35" stroke="black"/>
<line x1="61.9678" y1="4.37114e-08" x2="61.9678" y2="35" stroke="black" stroke-width="2"/>
<line x1="65.3547" y1="4.37114e-08" x2="65.3547" y2="35" stroke="black" stroke-width="2"/>
<line x1="68.2419" y1="2.18557e-08" x2="68.2419" y2="35" stroke="black"/>
<line x1="71.6289" y1="2.18557e-08" x2="71.6289" y2="35" stroke="black"/>
<line x1="75.5164" y1="4.37114e-08" x2="75.5164" y2="35" stroke="black" stroke-width="2"/>
<line x1="78.4033" y1="2.18557e-08" x2="78.4033" y2="35" stroke="black"/>
</svg>
