<svg width="40" height="40" viewBox="0 0 40 40" fill="none" xmlns="http://www.w3.org/2000/svg">
<path d="M36 0H12C9.8 0 8 1.8 8 4V28C8 30.2 9.8 32 12 32H36C38.2 32 40 30.2 40 28V4C40 1.8 38.2 0 36 0ZM19 15C19 16.66 17.66 18 16 18H14V22H11V10H16C17.66 10 19 11.34 19 13V15ZM29 19C29 20.66 27.66 22 26 22H21V10H26C27.66 10 29 11.34 29 13V19ZM37 13H34V15H37V18H34V22H31V10H37V13ZM14 15H16V13H14V15ZM4 8H0V36C0 38.2 1.8 40 4 40H32V36H4V8ZM24 19H26V13H24V19Z" fill="url(#paint0_linear)"/>
<defs>
<linearGradient id="paint0_linear" x1="0" y1="20" x2="40" y2="20" gradientUnits="userSpaceOnUse">
<stop stop-color="#FF0084"/>
<stop offset="1" stop-color="#33001B"/>
</linearGradient>
</defs>
</svg>
