<svg width="40" height="40" viewBox="0 0 40 40" fill="none" xmlns="http://www.w3.org/2000/svg">
<path d="M15 9V15H9V9H15ZM18 6H6V18H18V6ZM15 25V31H9V25H15ZM18 22H6V34H18V22ZM31 9V15H25V9H31ZM34 6H22V18H34V6ZM22 22H25V25H22V22ZM25 25H28V28H25V25ZM28 22H31V25H28V22ZM22 28H25V31H22V28ZM25 31H28V34H25V31ZM28 28H31V31H28V28ZM31 25H34V28H31V25ZM31 31H34V34H31V31ZM40 10H36V4H30V0H40V10ZM40 40V30H36V36H30V40H40ZM0 40H10V36H4V30H0V40ZM0 0V10H4V4H10V0H0Z" fill="url(#paint0_linear)"/>
<defs>
<linearGradient id="paint0_linear" x1="0" y1="20" x2="40" y2="20" gradientUnits="userSpaceOnUse">
<stop stop-color="#1D4350"/>
<stop offset="1" stop-color="#A43931"/>
</linearGradient>
</defs>
</svg>
