<svg width="167" height="122" viewBox="0 0 167 122" fill="none" xmlns="http://www.w3.org/2000/svg">
<rect width="167" height="121.47" rx="15" fill="url(#paint0_linear)"/>
<path d="M0 15C0 6.71573 6.71573 0 15 0H152C160.284 0 167 6.71573 167 15V60.735H0V15Z" fill="#031238"/>
<circle cx="144.5" cy="23.5" r="7.5" fill="white"/>
<g opacity="0.6">
<path opacity="0.6" fill-rule="evenodd" clip-rule="evenodd" d="M131.152 95.7017C132.555 105.194 98.5489 111.385 69.2795 107.064C40.01 102.744 26.5825 85.8702 40.5494 76.8795C54.5164 67.8887 129.75 86.2095 131.152 95.7017Z" fill="#DDE3E9"/>
</g>
<path d="M71.3272 33.4874H50.548C49.906 33.4874 49.3856 34.0079 49.3856 34.6499V76.2082C49.3856 76.8502 49.906 77.3707 50.548 77.3707H71.3272C71.9692 77.3707 72.4897 76.8502 72.4897 76.2082V34.6499C72.4897 34.0079 71.9692 33.4874 71.3272 33.4874Z" fill="#F2F2F2"/>
<path fill-rule="evenodd" clip-rule="evenodd" d="M60.865 74.6098C62.0687 74.6098 63.0446 73.6339 63.0446 72.4302C63.0446 71.2264 62.0687 70.2505 60.865 70.2505C59.6612 70.2505 58.6853 71.2264 58.6853 72.4302C58.6853 73.6339 59.6612 74.6098 60.865 74.6098Z" fill="white"/>
<path fill-rule="evenodd" clip-rule="evenodd" d="M58.976 36.3936C59.1365 36.3936 59.2666 36.2635 59.2666 36.103C59.2666 35.9425 59.1365 35.8124 58.976 35.8124C58.8154 35.8124 58.6853 35.9425 58.6853 36.103C58.6853 36.2635 58.8154 36.3936 58.976 36.3936Z" fill="white"/>
<path d="M62.754 35.8124H60.2837C60.1232 35.8124 59.9931 35.9425 59.9931 36.103C59.9931 36.2635 60.1232 36.3936 60.2837 36.3936H62.754C62.9145 36.3936 63.0446 36.2635 63.0446 36.103C63.0446 35.9425 62.9145 35.8124 62.754 35.8124Z" fill="white"/>
<path d="M69.8741 37.5561H52.0011C51.6801 37.5561 51.4199 37.8163 51.4199 38.1373V44.8215C51.4199 45.1425 51.6801 45.4027 52.0011 45.4027H69.8741C70.1951 45.4027 70.4553 45.1425 70.4553 44.8215V38.1373C70.4553 37.8163 70.1951 37.5561 69.8741 37.5561Z" fill="white"/>
<path d="M67.2586 39.9101H57.5229C57.2821 39.9101 57.0869 40.1052 57.0869 40.346V40.6511C57.0869 40.8919 57.2821 41.0871 57.5229 41.0871H67.2586C67.4993 41.0871 67.6945 40.8919 67.6945 40.6511V40.346C67.6945 40.1052 67.4993 39.9101 67.2586 39.9101Z" fill="#DDE3E9"/>
<path d="M63.7711 41.8717H57.5229C57.2821 41.8717 57.0869 42.0669 57.0869 42.3077V42.6128C57.0869 42.8536 57.2821 43.0487 57.5229 43.0487H63.7711C64.0119 43.0487 64.2071 42.8536 64.2071 42.6128V42.3077C64.2071 42.0669 64.0119 41.8717 63.7711 41.8717Z" fill="#DDE3E9"/>
<path fill-rule="evenodd" clip-rule="evenodd" d="M54.4714 43.2231C55.4343 43.2231 56.2151 42.4424 56.2151 41.4794C56.2151 40.5164 55.4343 39.7357 54.4714 39.7357C53.5084 39.7357 52.7277 40.5164 52.7277 41.4794C52.7277 42.4424 53.5084 43.2231 54.4714 43.2231Z" fill="#C5CFD6"/>
<path d="M69.8741 46.5652H52.0011C51.6801 46.5652 51.4199 46.8254 51.4199 47.1464V52.0869C51.4199 52.408 51.6801 52.6682 52.0011 52.6682H69.8741C70.1951 52.6682 70.4553 52.408 70.4553 52.0869V47.1464C70.4553 46.8254 70.1951 46.5652 69.8741 46.5652Z" fill="white"/>
<path d="M67.2586 48.3961H57.5229C57.2821 48.3961 57.0869 48.5913 57.0869 48.832V48.8756C57.0869 49.1164 57.2821 49.3115 57.5229 49.3115H67.2586C67.4993 49.3115 67.6945 49.1164 67.6945 48.8756V48.832C67.6945 48.5913 67.4993 48.3961 67.2586 48.3961Z" fill="#DDE3E9"/>
<path d="M63.7711 49.9218H57.5229C57.2821 49.9218 57.0869 50.117 57.0869 50.3578V50.4014C57.0869 50.6421 57.2821 50.8373 57.5229 50.8373H63.7711C64.0119 50.8373 64.2071 50.6421 64.2071 50.4014V50.3578C64.2071 50.117 64.0119 49.9218 63.7711 49.9218Z" fill="#DDE3E9"/>
<path fill-rule="evenodd" clip-rule="evenodd" d="M54.4714 51.3604C55.4343 51.3604 56.2151 50.5797 56.2151 49.6167C56.2151 48.6537 55.4343 47.873 54.4714 47.873C53.5084 47.873 52.7277 48.6537 52.7277 49.6167C52.7277 50.5797 53.5084 51.3604 54.4714 51.3604Z" fill="#C5CFD6"/>
<path d="M69.8741 53.8307H52.0011C51.6801 53.8307 51.4199 54.0909 51.4199 54.4119V59.3524C51.4199 59.6734 51.6801 59.9336 52.0011 59.9336H69.8741C70.1951 59.9336 70.4553 59.6734 70.4553 59.3524V54.4119C70.4553 54.0909 70.1951 53.8307 69.8741 53.8307Z" fill="white"/>
<path d="M67.2586 55.6615H57.5229C57.2821 55.6615 57.0869 55.8567 57.0869 56.0975V56.1411C57.0869 56.3818 57.2821 56.577 57.5229 56.577H67.2586C67.4993 56.577 67.6945 56.3818 67.6945 56.1411V56.0975C67.6945 55.8567 67.4993 55.6615 67.2586 55.6615Z" fill="#DDE3E9"/>
<path d="M63.7711 57.1873H57.5229C57.2821 57.1873 57.0869 57.3825 57.0869 57.6232V57.6668C57.0869 57.9076 57.2821 58.1027 57.5229 58.1027H63.7711C64.0119 58.1027 64.2071 57.9076 64.2071 57.6668V57.6232C64.2071 57.3825 64.0119 57.1873 63.7711 57.1873Z" fill="#DDE3E9"/>
<path fill-rule="evenodd" clip-rule="evenodd" d="M54.4714 58.6258C55.4343 58.6258 56.2151 57.8451 56.2151 56.8821C56.2151 55.9192 55.4343 55.1384 54.4714 55.1384C53.5084 55.1384 52.7277 55.9192 52.7277 56.8821C52.7277 57.8451 53.5084 58.6258 54.4714 58.6258Z" fill="#AFB9C5"/>
<path d="M69.8741 61.0961H52.0011C51.6801 61.0961 51.4199 61.3563 51.4199 61.6773V66.6178C51.4199 66.9388 51.6801 67.1991 52.0011 67.1991H69.8741C70.1951 67.1991 70.4553 66.9388 70.4553 66.6178V61.6773C70.4553 61.3563 70.1951 61.0961 69.8741 61.0961Z" fill="white"/>
<path d="M67.2586 62.927H57.5229C57.2821 62.927 57.0869 63.1221 57.0869 63.3629V63.4065C57.0869 63.6473 57.2821 63.8424 57.5229 63.8424H67.2586C67.4993 63.8424 67.6945 63.6473 67.6945 63.4065V63.3629C67.6945 63.1221 67.4993 62.927 67.2586 62.927Z" fill="#DDE3E9"/>
<path d="M63.7711 64.4527H57.5229C57.2821 64.4527 57.0869 64.6479 57.0869 64.8886V64.9322C57.0869 65.173 57.2821 65.3682 57.5229 65.3682H63.7711C64.0119 65.3682 64.2071 65.173 64.2071 64.9322V64.8886C64.2071 64.6479 64.0119 64.4527 63.7711 64.4527Z" fill="#DDE3E9"/>
<path fill-rule="evenodd" clip-rule="evenodd" d="M54.4714 65.8913C55.4343 65.8913 56.2151 65.1105 56.2151 64.1476C56.2151 63.1846 55.4343 62.4039 54.4714 62.4039C53.5084 62.4039 52.7277 63.1846 52.7277 64.1476C52.7277 65.1105 53.5084 65.8913 54.4714 65.8913Z" fill="#C5CFD6"/>
<path fill-rule="evenodd" clip-rule="evenodd" d="M53.7652 68.9428C53.5726 68.9428 53.3807 68.9467 53.1884 68.9566C53.0418 68.9643 52.8179 68.9339 52.694 69.0253C52.5651 69.1202 52.5739 69.3143 52.5941 69.4515C52.7005 70.1769 52.9602 70.82 53.5035 71.334C54.34 72.1252 55.2989 72.5272 56.4336 72.7063C57.2308 72.8321 57.9666 72.6574 58.5534 72.0906C58.9822 72.8863 59.3074 73.7669 59.4706 74.6556C59.5511 75.0941 59.5756 75.5274 59.5615 75.974C59.5524 76.2599 59.5367 76.5453 59.506 76.83C59.4927 76.9536 59.4296 77.1408 59.478 77.2578C59.5348 77.3949 59.7265 77.4083 59.8125 77.2912C59.8841 77.1938 59.8711 77.0025 59.8857 76.8872C59.9101 76.6957 59.9327 76.5041 59.9488 76.3117C59.9751 76.0003 59.9944 75.688 59.9931 75.3753C59.9898 74.673 59.8336 73.968 59.62 73.3013C59.2102 72.0221 58.5454 70.8854 57.5114 69.9935C56.8755 69.4451 56.1478 69.2231 55.3223 69.1038C54.8082 69.0295 54.2858 68.9428 53.7652 68.9428Z" fill="#89C5CC"/>
<path fill-rule="evenodd" clip-rule="evenodd" d="M56.734 74.0286C54.6562 74.0286 53.2569 75.7031 52.5953 77.4436C52.3458 78.0995 52.2874 78.82 52.1912 79.5087C52.1604 79.7299 52.1719 80.0667 52.0821 80.2636C52.0495 80.3351 51.9748 80.3607 52.0106 80.458C52.0322 80.5169 52.0745 80.5531 52.1383 80.5647C52.2689 80.5888 52.4538 80.4464 52.5658 80.3903C53.4952 79.9242 54.1058 79.2035 54.6039 78.3217C54.9128 77.7752 55.2261 77.2078 55.4095 76.6078C55.5215 76.2412 55.5868 75.8552 55.6251 75.475C55.6402 75.3252 55.6548 75.1719 55.6539 75.0213C55.653 74.8718 55.5834 74.7927 55.5334 74.6627C56.2267 74.4003 57.0093 74.3288 57.7116 74.6007C58.3611 74.8522 58.9007 75.3382 59.2028 75.949C59.2812 76.1076 59.3418 76.275 59.3859 76.4459C59.4148 76.5578 59.4161 76.7028 59.4697 76.804C59.5993 77.0492 59.8722 76.8853 59.8461 76.6571C59.773 76.0205 59.4088 75.3812 58.9433 74.9386C58.3561 74.3804 57.5604 74.0286 56.734 74.0286Z" fill="#89C5CC"/>
<path d="M80.9176 37.2654H60.1384C59.4964 37.2654 58.9759 37.7859 58.9759 38.4279V79.9862C58.9759 80.6283 59.4964 81.1487 60.1384 81.1487H80.9176C81.5596 81.1487 82.08 80.6283 82.08 79.9862V38.4279C82.08 37.7859 81.5596 37.2654 80.9176 37.2654Z" fill="#DDE3E9"/>
<path fill-rule="evenodd" clip-rule="evenodd" d="M70.4553 78.3878C71.6591 78.3878 72.635 77.4119 72.635 76.2082C72.635 75.0045 71.6591 74.0286 70.4553 74.0286C69.2516 74.0286 68.2757 75.0045 68.2757 76.2082C68.2757 77.4119 69.2516 78.3878 70.4553 78.3878Z" fill="white"/>
<path fill-rule="evenodd" clip-rule="evenodd" d="M68.5663 40.1716C68.7269 40.1716 68.8569 40.0416 68.8569 39.881C68.8569 39.7204 68.7269 39.5904 68.5663 39.5904C68.4058 39.5904 68.2757 39.7204 68.2757 39.881C68.2757 40.0416 68.4058 40.1716 68.5663 40.1716Z" fill="white"/>
<path d="M72.3444 39.5904H69.8741C69.7136 39.5904 69.5835 39.7205 69.5835 39.881C69.5835 40.0415 69.7136 40.1716 69.8741 40.1716H72.3444C72.5049 40.1716 72.635 40.0415 72.635 39.881C72.635 39.7205 72.5049 39.5904 72.3444 39.5904Z" fill="white"/>
<path d="M79.4645 41.3341H61.5915C61.2705 41.3341 61.0103 41.5943 61.0103 41.9153V48.5995C61.0103 48.9205 61.2705 49.1808 61.5915 49.1808H79.4645C79.7855 49.1808 80.0457 48.9205 80.0457 48.5995V41.9153C80.0457 41.5943 79.7855 41.3341 79.4645 41.3341Z" fill="white"/>
<path d="M72.4897 43.6881H62.754C62.5132 43.6881 62.318 43.8833 62.318 44.124V44.4292C62.318 44.6699 62.5132 44.8651 62.754 44.8651H72.4897C72.7304 44.8651 72.9256 44.6699 72.9256 44.4292V44.124C72.9256 43.8833 72.7304 43.6881 72.4897 43.6881Z" fill="#DDE3E9"/>
<path d="M69.0023 45.6498H62.754C62.5132 45.6498 62.318 45.8449 62.318 46.0857V46.3908C62.318 46.6316 62.5132 46.8268 62.754 46.8268H69.0023C69.243 46.8268 69.4382 46.6316 69.4382 46.3908V46.0857C69.4382 45.8449 69.243 45.6498 69.0023 45.6498Z" fill="#DDE3E9"/>
<path fill-rule="evenodd" clip-rule="evenodd" d="M78.0114 46.2746C78.5732 46.2746 79.0286 45.8192 79.0286 45.2574C79.0286 44.6957 78.5732 44.2403 78.0114 44.2403C77.4496 44.2403 76.9942 44.6957 76.9942 45.2574C76.9942 45.8192 77.4496 46.2746 78.0114 46.2746Z" fill="#DDE3E9"/>
<path fill-rule="evenodd" clip-rule="evenodd" d="M78.0114 45.6933C78.2522 45.6933 78.4473 45.4982 78.4473 45.2574C78.4473 45.0166 78.2522 44.8215 78.0114 44.8215C77.7706 44.8215 77.5755 45.0166 77.5755 45.2574C77.5755 45.4982 77.7706 45.6933 78.0114 45.6933Z" fill="#F2F2F2"/>
<path d="M79.4645 50.3432H61.5915C61.2705 50.3432 61.0103 50.6035 61.0103 50.9245V55.865C61.0103 56.186 61.2705 56.4462 61.5915 56.4462H79.4645C79.7855 56.4462 80.0457 56.186 80.0457 55.865V50.9245C80.0457 50.6035 79.7855 50.3432 79.4645 50.3432Z" fill="white"/>
<path d="M76.8489 52.1741H67.1132C66.8725 52.1741 66.6773 52.3693 66.6773 52.6101V52.6537C66.6773 52.8944 66.8725 53.0896 67.1132 53.0896H76.8489C77.0897 53.0896 77.2849 52.8944 77.2849 52.6537V52.6101C77.2849 52.3693 77.0897 52.1741 76.8489 52.1741Z" fill="#DDE3E9"/>
<path d="M73.3615 53.6999H67.1132C66.8725 53.6999 66.6773 53.895 66.6773 54.1358V54.1794C66.6773 54.4201 66.8725 54.6153 67.1132 54.6153H73.3615C73.6023 54.6153 73.7974 54.4201 73.7974 54.1794V54.1358C73.7974 53.895 73.6023 53.6999 73.3615 53.6999Z" fill="#DDE3E9"/>
<path fill-rule="evenodd" clip-rule="evenodd" d="M64.0618 55.1384C65.0247 55.1384 65.8055 54.3577 65.8055 53.3947C65.8055 52.4318 65.0247 51.651 64.0618 51.651C63.0988 51.651 62.318 52.4318 62.318 53.3947C62.318 54.3577 63.0988 55.1384 64.0618 55.1384Z" fill="#C5CFD6"/>
<path d="M79.4645 57.6087H61.5915C61.2705 57.6087 61.0103 57.8689 61.0103 58.1899V63.1304C61.0103 63.4514 61.2705 63.7117 61.5915 63.7117H79.4645C79.7855 63.7117 80.0457 63.4514 80.0457 63.1304V58.1899C80.0457 57.8689 79.7855 57.6087 79.4645 57.6087Z" fill="white"/>
<path d="M72.4897 59.4396H62.754C62.5132 59.4396 62.318 59.6347 62.318 59.8755V59.9191C62.318 60.1598 62.5132 60.355 62.754 60.355H72.4897C72.7304 60.355 72.9256 60.1598 72.9256 59.9191V59.8755C72.9256 59.6347 72.7304 59.4396 72.4897 59.4396Z" fill="#DDE3E9"/>
<path d="M69.0023 60.9653H62.754C62.5132 60.9653 62.318 61.1605 62.318 61.4012V61.4448C62.318 61.6856 62.5132 61.8808 62.754 61.8808H69.0023C69.243 61.8808 69.4382 61.6856 69.4382 61.4448V61.4012C69.4382 61.1605 69.243 60.9653 69.0023 60.9653Z" fill="#AFB9C5"/>
<path fill-rule="evenodd" clip-rule="evenodd" d="M78.0114 61.6773C78.5732 61.6773 79.0286 61.2219 79.0286 60.6602C79.0286 60.0984 78.5732 59.643 78.0114 59.643C77.4496 59.643 76.9942 60.0984 76.9942 60.6602C76.9942 61.2219 77.4496 61.6773 78.0114 61.6773Z" fill="#DDE3E9"/>
<path fill-rule="evenodd" clip-rule="evenodd" d="M78.0114 61.0961C78.2522 61.0961 78.4473 60.9009 78.4473 60.6602C78.4473 60.4194 78.2522 60.2242 78.0114 60.2242C77.7706 60.2242 77.5755 60.4194 77.5755 60.6602C77.5755 60.9009 77.7706 61.0961 78.0114 61.0961Z" fill="#F2F2F2"/>
<path d="M79.4645 64.8741H61.5915C61.2705 64.8741 61.0103 65.1343 61.0103 65.4554V70.3958C61.0103 70.7169 61.2705 70.9771 61.5915 70.9771H79.4645C79.7855 70.9771 80.0457 70.7169 80.0457 70.3958V65.4554C80.0457 65.1343 79.7855 64.8741 79.4645 64.8741Z" fill="white"/>
<path d="M76.8489 66.705H67.1132C66.8725 66.705 66.6773 66.9002 66.6773 67.1409V67.1845C66.6773 67.4253 66.8725 67.6205 67.1132 67.6205H76.8489C77.0897 67.6205 77.2849 67.4253 77.2849 67.1845V67.1409C77.2849 66.9002 77.0897 66.705 76.8489 66.705Z" fill="#DDE3E9"/>
<path d="M73.3615 68.2308H67.1132C66.8725 68.2308 66.6773 68.4259 66.6773 68.6667V68.7103C66.6773 68.951 66.8725 69.1462 67.1132 69.1462H73.3615C73.6023 69.1462 73.7974 68.951 73.7974 68.7103V68.6667C73.7974 68.4259 73.6023 68.2308 73.3615 68.2308Z" fill="#DDE3E9"/>
<path fill-rule="evenodd" clip-rule="evenodd" d="M64.0618 69.6693C65.0247 69.6693 65.8055 68.8886 65.8055 67.9256C65.8055 66.9626 65.0247 66.1819 64.0618 66.1819C63.0988 66.1819 62.318 66.9626 62.318 67.9256C62.318 68.8886 63.0988 69.6693 64.0618 69.6693Z" fill="#C5CFD6"/>
<path d="M116.082 40.8982H69.7288C69.0868 40.8982 68.5663 41.4186 68.5663 42.0606V90.0125C68.5663 90.6546 69.0868 91.175 69.7288 91.175H116.082C116.724 91.175 117.245 90.6546 117.245 90.0125V42.0606C117.245 41.4186 116.724 40.8982 116.082 40.8982Z" fill="#F2F2F2"/>
<path d="M113.757 47.1464H105.911C105.269 47.1464 104.748 47.6669 104.748 48.3089V57.754C104.748 58.396 105.269 58.9165 105.911 58.9165H113.757C114.399 58.9165 114.92 58.396 114.92 57.754V48.3089C114.92 47.6669 114.399 47.1464 113.757 47.1464Z" fill="white"/>
<path fill-rule="evenodd" clip-rule="evenodd" d="M109.834 53.976C111.118 53.976 112.159 52.9351 112.159 51.651C112.159 50.3669 111.118 49.3261 109.834 49.3261C108.55 49.3261 107.509 50.3669 107.509 51.651C107.509 52.9351 108.55 53.976 109.834 53.976Z" fill="#DDE3E9"/>
<path d="M113.031 54.5572H106.637C106.396 54.5572 106.201 54.7524 106.201 54.9931C106.201 55.2339 106.396 55.429 106.637 55.429H113.031C113.272 55.429 113.467 55.2339 113.467 54.9931C113.467 54.7524 113.272 54.5572 113.031 54.5572Z" fill="#DDE3E9"/>
<path d="M111.868 56.0103H107.8C107.559 56.0103 107.364 56.2054 107.364 56.4462C107.364 56.687 107.559 56.8821 107.8 56.8821H111.868C112.109 56.8821 112.304 56.687 112.304 56.4462C112.304 56.2054 112.109 56.0103 111.868 56.0103Z" fill="#DDE3E9"/>
<path d="M68.5663 42.0606C68.5663 41.4187 69.0868 40.8982 69.7288 40.8982H116.082C116.724 40.8982 117.245 41.4187 117.245 42.0606V44.8215H68.5663V42.0606Z" fill="#C5CFD6"/>
<path fill-rule="evenodd" clip-rule="evenodd" d="M70.4553 43.5137C70.7763 43.5137 71.0366 43.2535 71.0366 42.9325C71.0366 42.6115 70.7763 42.3512 70.4553 42.3512C70.1344 42.3512 69.8741 42.6115 69.8741 42.9325C69.8741 43.2535 70.1344 43.5137 70.4553 43.5137Z" fill="#F2F2F2"/>
<path fill-rule="evenodd" clip-rule="evenodd" d="M72.199 43.5137C72.52 43.5137 72.7803 43.2535 72.7803 42.9325C72.7803 42.6115 72.52 42.3512 72.199 42.3512C71.8781 42.3512 71.6178 42.6115 71.6178 42.9325C71.6178 43.2535 71.8781 43.5137 72.199 43.5137Z" fill="#F2F2F2"/>
<path fill-rule="evenodd" clip-rule="evenodd" d="M73.9428 43.5137C74.2637 43.5137 74.524 43.2535 74.524 42.9325C74.524 42.6115 74.2637 42.3512 73.9428 42.3512C73.6218 42.3512 73.3615 42.6115 73.3615 42.9325C73.3615 43.2535 73.6218 43.5137 73.9428 43.5137Z" fill="#F2F2F2"/>
<path d="M113.757 60.0789H105.911C105.269 60.0789 104.748 60.5994 104.748 61.2414V87.1064C104.748 87.7484 105.269 88.2688 105.911 88.2688H113.757C114.399 88.2688 114.92 87.7484 114.92 87.1064V61.2414C114.92 60.5994 114.399 60.0789 113.757 60.0789Z" fill="white"/>
<path d="M111.723 62.6945H107.945C107.624 62.6945 107.364 62.9547 107.364 63.2757V65.8913C107.364 66.2123 107.624 66.4725 107.945 66.4725H111.723C112.044 66.4725 112.304 66.2123 112.304 65.8913V63.2757C112.304 62.9547 112.044 62.6945 111.723 62.6945Z" fill="#DDE3E9"/>
<path d="M111.723 67.635H107.945C107.624 67.635 107.364 67.8952 107.364 68.2162V70.6865C107.364 71.0075 107.624 71.2677 107.945 71.2677H111.723C112.044 71.2677 112.304 71.0075 112.304 70.6865V68.2162C112.304 67.8952 112.044 67.635 111.723 67.635Z" fill="#AFB9C5"/>
<path d="M111.723 72.4302H107.945C107.624 72.4302 107.364 72.6904 107.364 73.0114V75.4817C107.364 75.8027 107.624 76.0629 107.945 76.0629H111.723C112.044 76.0629 112.304 75.8027 112.304 75.4817V73.0114C112.304 72.6904 112.044 72.4302 111.723 72.4302Z" fill="#DDE3E9"/>
<path d="M111.723 82.0206H107.945C107.624 82.0206 107.364 82.2808 107.364 82.6018V85.072C107.364 85.393 107.624 85.6533 107.945 85.6533H111.723C112.044 85.6533 112.304 85.393 112.304 85.072V82.6018C112.304 82.2808 112.044 82.0206 111.723 82.0206Z" fill="#DDE3E9"/>
<path d="M111.723 77.2254H107.945C107.624 77.2254 107.364 77.4856 107.364 77.8066V80.2768C107.364 80.5979 107.624 80.8581 107.945 80.8581H111.723C112.044 80.8581 112.304 80.5979 112.304 80.2768V77.8066C112.304 77.4856 112.044 77.2254 111.723 77.2254Z" fill="#C5CFD6"/>
<path d="M103.005 47.2917H71.4725C71.1515 47.2917 70.8913 47.552 70.8913 47.873V53.54C70.8913 53.861 71.1515 54.1213 71.4725 54.1213H103.005C103.326 54.1213 103.586 53.861 103.586 53.54V47.873C103.586 47.552 103.326 47.2917 103.005 47.2917Z" fill="white"/>
<path d="M96.0297 49.3406H72.635C72.3942 49.3406 72.1991 49.5358 72.1991 49.7765V49.9291C72.1991 50.1699 72.3942 50.365 72.635 50.365H96.0297C96.2705 50.365 96.4656 50.1699 96.4656 49.9291V49.7765C96.4656 49.5358 96.2705 49.3406 96.0297 49.3406Z" fill="#DDE3E9"/>
<path d="M88.0517 51.048H72.635C72.3942 51.048 72.1991 51.2432 72.1991 51.4839V51.6365C72.1991 51.8772 72.3942 52.0724 72.635 52.0724H88.0517C88.2924 52.0724 88.4876 51.8772 88.4876 51.6365V51.4839C88.4876 51.2432 88.2924 51.048 88.0517 51.048Z" fill="#DDE3E9"/>
<path fill-rule="evenodd" clip-rule="evenodd" d="M100.092 51.7237C100.653 51.7237 101.109 51.2683 101.109 50.7065C101.109 50.1447 100.653 49.6893 100.092 49.6893C99.5299 49.6893 99.0745 50.1447 99.0745 50.7065C99.0745 51.2683 99.5299 51.7237 100.092 51.7237Z" fill="#DDE3E9"/>
<path fill-rule="evenodd" clip-rule="evenodd" d="M100.092 51.1424C100.332 51.1424 100.528 50.9473 100.528 50.7065C100.528 50.4657 100.332 50.2706 100.092 50.2706C99.8509 50.2706 99.6557 50.4657 99.6557 50.7065C99.6557 50.9473 99.8509 51.1424 100.092 51.1424Z" fill="#F2F2F2"/>
<path d="M103.005 55.2837H71.4725C71.1515 55.2837 70.8913 55.544 70.8913 55.865V60.3695C70.8913 60.6905 71.1515 60.9508 71.4725 60.9508H103.005C103.326 60.9508 103.586 60.6905 103.586 60.3695V55.865C103.586 55.544 103.326 55.2837 103.005 55.2837Z" fill="white"/>
<path d="M96.0406 56.9838H72.6241C72.3893 56.9838 72.1991 57.1741 72.1991 57.4089C72.1991 57.6436 72.3893 57.8339 72.6241 57.8339H96.0406C96.2753 57.8339 96.4656 57.6436 96.4656 57.4089C96.4656 57.1741 96.2753 56.9838 96.0406 56.9838Z" fill="#DDE3E9"/>
<path d="M88.0626 58.4006H72.6241C72.3893 58.4006 72.1991 58.5909 72.1991 58.8256C72.1991 59.0604 72.3893 59.2507 72.6241 59.2507H88.0626C88.2973 59.2507 88.4876 59.0604 88.4876 58.8256C88.4876 58.5909 88.2973 58.4006 88.0626 58.4006Z" fill="#DDE3E9"/>
<path fill-rule="evenodd" clip-rule="evenodd" d="M100.092 59.1344C100.653 59.1344 101.109 58.679 101.109 58.1173C101.109 57.5555 100.653 57.1001 100.092 57.1001C99.5299 57.1001 99.0745 57.5555 99.0745 58.1173C99.0745 58.679 99.5299 59.1344 100.092 59.1344Z" fill="#DDE3E9"/>
<path fill-rule="evenodd" clip-rule="evenodd" d="M100.092 58.5532C100.332 58.5532 100.528 58.358 100.528 58.1173C100.528 57.8765 100.332 57.6813 100.092 57.6813C99.8509 57.6813 99.6557 57.8765 99.6557 58.1173C99.6557 58.358 99.8509 58.5532 100.092 58.5532Z" fill="#F2F2F2"/>
<path d="M103.005 62.1133H71.4725C71.1515 62.1133 70.8913 62.3735 70.8913 62.6945V67.1991C70.8913 67.5201 71.1515 67.7803 71.4725 67.7803H103.005C103.326 67.7803 103.586 67.5201 103.586 67.1991V62.6945C103.586 62.3735 103.326 62.1133 103.005 62.1133Z" fill="white"/>
<path d="M96.0406 63.8134H72.6241C72.3893 63.8134 72.1991 64.0037 72.1991 64.2384C72.1991 64.4731 72.3893 64.6634 72.6241 64.6634H96.0406C96.2753 64.6634 96.4656 64.4731 96.4656 64.2384C96.4656 64.0037 96.2753 63.8134 96.0406 63.8134Z" fill="#DDE3E9"/>
<path d="M88.0626 65.2301H72.6241C72.3893 65.2301 72.1991 65.4204 72.1991 65.6552C72.1991 65.8899 72.3893 66.0802 72.6241 66.0802H88.0626C88.2973 66.0802 88.4876 65.8899 88.4876 65.6552C88.4876 65.4204 88.2973 65.2301 88.0626 65.2301Z" fill="#DDE3E9"/>
<path fill-rule="evenodd" clip-rule="evenodd" d="M100.092 65.9639C100.653 65.9639 101.109 65.5085 101.109 64.9468C101.109 64.385 100.653 63.9296 100.092 63.9296C99.5299 63.9296 99.0745 64.385 99.0745 64.9468C99.0745 65.5085 99.5299 65.9639 100.092 65.9639Z" fill="#DDE3E9"/>
<path fill-rule="evenodd" clip-rule="evenodd" d="M100.092 65.3827C100.332 65.3827 100.528 65.1875 100.528 64.9468C100.528 64.706 100.332 64.5108 100.092 64.5108C99.8509 64.5108 99.6557 64.706 99.6557 64.9468C99.6557 65.1875 99.8509 65.3827 100.092 65.3827Z" fill="#AFB9C5"/>
<path d="M103.005 82.6018H71.4725C71.1515 82.6018 70.8913 82.862 70.8913 83.183V87.6876C70.8913 88.0086 71.1515 88.2688 71.4725 88.2688H103.005C103.326 88.2688 103.586 88.0086 103.586 87.6876V83.183C103.586 82.862 103.326 82.6018 103.005 82.6018Z" fill="white"/>
<path d="M96.0406 84.3019H72.6241C72.3893 84.3019 72.1991 84.4922 72.1991 84.7269C72.1991 84.9617 72.3893 85.152 72.6241 85.152H96.0406C96.2753 85.152 96.4656 84.9617 96.4656 84.7269C96.4656 84.4922 96.2753 84.3019 96.0406 84.3019Z" fill="#DDE3E9"/>
<path d="M88.0626 85.7187H72.6241C72.3893 85.7187 72.1991 85.909 72.1991 86.1437C72.1991 86.3784 72.3893 86.5687 72.6241 86.5687H88.0626C88.2973 86.5687 88.4876 86.3784 88.4876 86.1437C88.4876 85.909 88.2973 85.7187 88.0626 85.7187Z" fill="#DDE3E9"/>
<path fill-rule="evenodd" clip-rule="evenodd" d="M100.092 86.4525C100.653 86.4525 101.109 85.9971 101.109 85.4353C101.109 84.8735 100.653 84.4181 100.092 84.4181C99.5299 84.4181 99.0745 84.8735 99.0745 85.4353C99.0745 85.9971 99.5299 86.4525 100.092 86.4525Z" fill="#DDE3E9"/>
<path fill-rule="evenodd" clip-rule="evenodd" d="M100.092 85.8712C100.332 85.8712 100.528 85.6761 100.528 85.4353C100.528 85.1945 100.332 84.9994 100.092 84.9994C99.8509 84.9994 99.6557 85.1945 99.6557 85.4353C99.6557 85.6761 99.8509 85.8712 100.092 85.8712Z" fill="#F2F2F2"/>
<path d="M103.005 75.7723H71.4725C71.1515 75.7723 70.8913 76.0325 70.8913 76.3535V80.8581C70.8913 81.1791 71.1515 81.4393 71.4725 81.4393H103.005C103.326 81.4393 103.586 81.1791 103.586 80.8581V76.3535C103.586 76.0325 103.326 75.7723 103.005 75.7723Z" fill="white"/>
<path d="M96.0406 77.4724H72.6241C72.3893 77.4724 72.1991 77.6627 72.1991 77.8974C72.1991 78.1322 72.3893 78.3224 72.6241 78.3224H96.0406C96.2753 78.3224 96.4656 78.1322 96.4656 77.8974C96.4656 77.6627 96.2753 77.4724 96.0406 77.4724Z" fill="#DDE3E9"/>
<path d="M88.0626 78.8892H72.6241C72.3893 78.8892 72.1991 79.0794 72.1991 79.3142C72.1991 79.5489 72.3893 79.7392 72.6241 79.7392H88.0626C88.2973 79.7392 88.4876 79.5489 88.4876 79.3142C88.4876 79.0794 88.2973 78.8892 88.0626 78.8892Z" fill="#DDE3E9"/>
<path fill-rule="evenodd" clip-rule="evenodd" d="M100.092 79.623C100.653 79.623 101.109 79.1676 101.109 78.6058C101.109 78.044 100.653 77.5886 100.092 77.5886C99.5299 77.5886 99.0745 78.044 99.0745 78.6058C99.0745 79.1676 99.5299 79.623 100.092 79.623Z" fill="#DDE3E9"/>
<path fill-rule="evenodd" clip-rule="evenodd" d="M100.092 79.0417C100.332 79.0417 100.528 78.8466 100.528 78.6058C100.528 78.365 100.332 78.1699 100.092 78.1699C99.8509 78.1699 99.6557 78.365 99.6557 78.6058C99.6557 78.8466 99.8509 79.0417 100.092 79.0417Z" fill="#F2F2F2"/>
<path d="M103.005 68.9428H71.4725C71.1515 68.9428 70.8913 69.203 70.8913 69.524V74.0286C70.8913 74.3496 71.1515 74.6098 71.4725 74.6098H103.005C103.326 74.6098 103.586 74.3496 103.586 74.0286V69.524C103.586 69.203 103.326 68.9428 103.005 68.9428Z" fill="white"/>
<path d="M96.0406 70.6429H72.6241C72.3893 70.6429 72.1991 70.8332 72.1991 71.0679C72.1991 71.3026 72.3893 71.4929 72.6241 71.4929H96.0406C96.2753 71.4929 96.4656 71.3026 96.4656 71.0679C96.4656 70.8332 96.2753 70.6429 96.0406 70.6429Z" fill="#DDE3E9"/>
<path d="M88.0626 72.0596H72.6241C72.3893 72.0596 72.1991 72.2499 72.1991 72.4847C72.1991 72.7194 72.3893 72.9097 72.6241 72.9097H88.0626C88.2973 72.9097 88.4876 72.7194 88.4876 72.4847C88.4876 72.2499 88.2973 72.0596 88.0626 72.0596Z" fill="#DDE3E9"/>
<path fill-rule="evenodd" clip-rule="evenodd" d="M100.092 72.7934C100.653 72.7934 101.109 72.3381 101.109 71.7763C101.109 71.2145 100.653 70.7591 100.092 70.7591C99.5299 70.7591 99.0745 71.2145 99.0745 71.7763C99.0745 72.3381 99.5299 72.7934 100.092 72.7934Z" fill="#DDE3E9"/>
<path fill-rule="evenodd" clip-rule="evenodd" d="M100.092 72.2122C100.332 72.2122 100.528 72.0171 100.528 71.7763C100.528 71.5355 100.332 71.3404 100.092 71.3404C99.8509 71.3404 99.6557 71.5355 99.6557 71.7763C99.6557 72.0171 99.8509 72.2122 100.092 72.2122Z" fill="#F2F2F2"/>
<path d="M105.765 35.0858C105.765 34.8451 105.57 34.6499 105.329 34.6499C105.089 34.6499 104.894 34.8451 104.894 35.0858V37.8467C104.894 38.0874 105.089 38.2826 105.329 38.2826C105.57 38.2826 105.765 38.0874 105.765 37.8467V35.0858Z" fill="#DDE3E9"/>
<path d="M107.8 32.7609C107.8 32.5201 107.605 32.3249 107.364 32.3249C107.123 32.3249 106.928 32.5201 106.928 32.7609V37.8467C106.928 38.0874 107.123 38.2826 107.364 38.2826C107.605 38.2826 107.8 38.0874 107.8 37.8467V32.7609Z" fill="#DDE3E9"/>
<path d="M109.834 31.5984C109.834 31.3576 109.639 31.1625 109.398 31.1625C109.157 31.1625 108.962 31.3576 108.962 31.5984V37.8467C108.962 38.0874 109.157 38.2826 109.398 38.2826C109.639 38.2826 109.834 38.0874 109.834 37.8467V31.5984Z" fill="#DDE3E9"/>
<path d="M111.868 32.7609C111.868 32.5201 111.673 32.3249 111.432 32.3249C111.192 32.3249 110.997 32.5201 110.997 32.7609V37.8467C110.997 38.0874 111.192 38.2826 111.432 38.2826C111.673 38.2826 111.868 38.0874 111.868 37.8467V32.7609Z" fill="#DDE3E9"/>
<path d="M113.903 30.4359C113.903 30.1952 113.708 30 113.467 30C113.226 30 113.031 30.1952 113.031 30.4359V37.8467C113.031 38.0874 113.226 38.2826 113.467 38.2826C113.708 38.2826 113.903 38.0874 113.903 37.8467V30.4359Z" fill="#C5CFD6"/>
<path fill-rule="evenodd" clip-rule="evenodd" d="M100.251 35.7403C100.036 35.9675 99.732 36.1102 99.3936 36.1102C98.7433 36.1102 98.2163 35.5865 98.2163 34.9405C98.2163 34.2945 98.7433 33.7708 99.3936 33.7708V31.5984C97.5438 31.5984 96.0297 33.1027 96.0297 34.9405C96.0297 36.7783 97.5438 38.2826 99.3936 38.2826C100.365 38.2826 101.243 37.8741 101.842 37.2245L100.251 35.7403Z" fill="#F2F2F2"/>
<path fill-rule="evenodd" clip-rule="evenodd" d="M99.3718 31.5984V33.7708C100.018 33.7708 100.542 34.2945 100.542 34.9405H102.714C102.714 33.1027 101.21 31.5984 99.3718 31.5984Z" fill="#AFB9C5"/>
<path fill-rule="evenodd" clip-rule="evenodd" d="M100.545 34.9405C100.545 35.3118 100.37 35.6418 100.098 35.8549L101.435 37.5561C102.213 36.947 102.714 36.003 102.714 34.9405H100.545Z" fill="#C5CFD6"/>
<path fill-rule="evenodd" clip-rule="evenodd" d="M47.3523 38.2806C47.3517 38.282 47.3511 38.2835 47.3502 38.2852C47.3511 38.2838 47.3523 38.278 47.3523 38.2806Z" fill="#C5CFD6"/>
<path fill-rule="evenodd" clip-rule="evenodd" d="M47.351 38.2827C47.351 38.283 47.3507 38.2836 47.3507 38.2842C47.3507 38.2827 47.3533 38.2784 47.351 38.2827Z" fill="#C5CFD6"/>
<path fill-rule="evenodd" clip-rule="evenodd" d="M47.361 38.2582C47.3589 38.264 47.3563 38.2695 47.354 38.2753C47.3552 38.2724 47.3563 38.2701 47.3575 38.2672C47.3273 38.3428 47.3465 38.2936 47.361 38.2582Z" fill="#C5CFD6"/>
<path fill-rule="evenodd" clip-rule="evenodd" d="M47.3544 38.2758C47.3533 38.2784 47.3521 38.2813 47.351 38.2839C47.3425 38.3002 47.3544 38.2758 47.3544 38.2758Z" fill="#C5CFD6"/>
<path fill-rule="evenodd" clip-rule="evenodd" d="M47.3511 38.2829C47.3511 38.2826 47.3511 38.2826 47.3514 38.2823C47.3511 38.2826 47.3511 38.2826 47.3511 38.2829Z" fill="#C5CFD6"/>
<path fill-rule="evenodd" clip-rule="evenodd" d="M47.3498 38.2849C47.348 38.2884 47.3579 38.2716 47.3498 38.2849V38.2849Z" fill="#C5CFD6"/>
<path fill-rule="evenodd" clip-rule="evenodd" d="M47.351 38.2829L47.3515 38.2823C47.3512 38.2826 47.3512 38.2829 47.351 38.2829Z" fill="#C5CFD6"/>
<path d="M53.5995 30.7265H40.9577C40.6366 30.7265 40.3764 30.9868 40.3764 31.3078V39.2998C40.3764 39.6208 40.6366 39.881 40.9577 39.881H53.5995C53.9205 39.881 54.1808 39.6208 54.1808 39.2998V31.3078C54.1808 30.9868 53.9205 30.7265 53.5995 30.7265Z" fill="#DDE3E9"/>
<path fill-rule="evenodd" clip-rule="evenodd" d="M45.6075 33.3421L41.5389 39.881H49.6762L45.6075 33.3421Z" fill="#AFB9C5"/>
<path fill-rule="evenodd" clip-rule="evenodd" d="M49.6035 35.0858L46.0435 39.881H53.1636L49.6035 35.0858Z" fill="#C5CFD6"/>
<path fill-rule="evenodd" clip-rule="evenodd" d="M51.1293 35.0858C51.8516 35.0858 52.4371 34.5003 52.4371 33.778C52.4371 33.0558 51.8516 32.4703 51.1293 32.4703C50.4069 32.4703 49.8215 33.0558 49.8215 33.778C49.8215 34.5003 50.4069 35.0858 51.1293 35.0858Z" fill="white"/>
<path fill-rule="evenodd" clip-rule="evenodd" d="M116.663 100.327C116.663 100.329 116.664 100.33 116.665 100.332C116.664 100.331 116.663 100.325 116.663 100.327Z" fill="#C5CFD6"/>
<path fill-rule="evenodd" clip-rule="evenodd" d="M116.664 100.33C116.664 100.33 116.664 100.33 116.664 100.331C116.664 100.33 116.662 100.325 116.664 100.33Z" fill="#C5CFD6"/>
<path fill-rule="evenodd" clip-rule="evenodd" d="M116.654 100.305C116.656 100.311 116.658 100.316 116.661 100.322C116.66 100.319 116.658 100.317 116.657 100.314C116.688 100.39 116.668 100.341 116.654 100.305Z" fill="#C5CFD6"/>
<path fill-rule="evenodd" clip-rule="evenodd" d="M116.66 100.323C116.662 100.325 116.663 100.328 116.664 100.331C116.672 100.347 116.66 100.323 116.66 100.323Z" fill="#C5CFD6"/>
<path fill-rule="evenodd" clip-rule="evenodd" d="M116.664 100.33C116.664 100.329 116.664 100.329 116.663 100.329C116.664 100.329 116.664 100.329 116.664 100.33Z" fill="#C5CFD6"/>
<path fill-rule="evenodd" clip-rule="evenodd" d="M116.665 100.332C116.667 100.335 116.657 100.318 116.665 100.332V100.332Z" fill="#C5CFD6"/>
<path fill-rule="evenodd" clip-rule="evenodd" d="M116.664 100.33L116.663 100.329C116.664 100.329 116.664 100.33 116.664 100.33Z" fill="#C5CFD6"/>
<path d="M106.928 89.1407H126.399C126.72 89.1407 126.98 89.4009 126.98 89.7219V102.218C126.98 102.539 126.72 102.8 126.399 102.8H106.928C106.607 102.8 106.347 102.539 106.347 102.218V89.7219C106.347 89.4009 106.607 89.1407 106.928 89.1407Z" fill="#DDE3E9"/>
<path fill-rule="evenodd" clip-rule="evenodd" d="M119.319 93.064L125.285 102.8H113.353L119.319 93.064Z" fill="#AFB9C5"/>
<path fill-rule="evenodd" clip-rule="evenodd" d="M113.168 95.6719L118.442 102.8H107.894L113.168 95.6719Z" fill="#C5CFD6"/>
<path fill-rule="evenodd" clip-rule="evenodd" d="M110.924 95.6796C109.84 95.6796 108.962 94.8013 108.962 93.7179C108.962 92.6345 109.84 91.7562 110.924 91.7562C112.007 91.7562 112.886 92.6345 112.886 93.7179C112.886 94.8013 112.007 95.6796 110.924 95.6796Z" fill="white"/>
<g filter="url(#filter0_d)">
<rect x="34.5" y="28.5" width="97" height="73" stroke="white" stroke-width="3"/>
</g>
<defs>
<filter id="filter0_d" x="29" y="27" width="108" height="84" filterUnits="userSpaceOnUse" color-interpolation-filters="sRGB">
<feFlood flood-opacity="0" result="BackgroundImageFix"/>
<feColorMatrix in="SourceAlpha" type="matrix" values="0 0 0 0 0 0 0 0 0 0 0 0 0 0 0 0 0 0 127 0"/>
<feOffset dy="4"/>
<feGaussianBlur stdDeviation="2"/>
<feColorMatrix type="matrix" values="0 0 0 0 0 0 0 0 0 0 0 0 0 0 0 0 0 0 0.25 0"/>
<feBlend mode="normal" in2="BackgroundImageFix" result="effect1_dropShadow"/>
<feBlend mode="normal" in="SourceGraphic" in2="effect1_dropShadow" result="shape"/>
</filter>
<linearGradient id="paint0_linear" x1="0" y1="60.735" x2="167" y2="60.735" gradientUnits="userSpaceOnUse">
<stop stop-color="#CA87D5"/>
<stop offset="1" stop-color="#FBC7D4"/>
</linearGradient>
</defs>
</svg>
